<svg width="32" height="32" viewBox="0 0 32 32" fill="none" xmlns="http://www.w3.org/2000/svg">
<path d="M17.333 12H23.333L22.6663 14.6666H17.333V26.6666H14.6663V14.6666H9.33301V12H14.6663V9.50396C14.6663 7.12663 14.9143 6.26396 15.3783 5.39463C15.8334 4.53595 16.5357 3.83364 17.3943 3.37863C18.2637 2.91463 19.1263 2.66663 21.5037 2.66663C22.2006 2.66663 22.8103 2.73329 23.333 2.86663V5.33329H21.5037C19.7383 5.33329 19.201 5.43729 18.6517 5.73063C18.2574 5.93663 17.9358 6.25869 17.7303 6.65329C17.437 7.20129 17.333 7.73863 17.333 9.50396V12Z" fill="#363232"/>
</svg>
