<svg width="15" height="25" viewBox="0 0 15 25" fill="none" xmlns="http://www.w3.org/2000/svg">
<path d="M8.33301 9.99996H14.333L13.6663 12.6666H8.33301V24.6666H5.66634V12.6666H0.333008V9.99996H5.66634V7.50396C5.66634 5.12663 5.91434 4.26396 6.37834 3.39463C6.83335 2.53595 7.53566 1.83364 8.39434 1.37863C9.26367 0.914626 10.1263 0.666626 12.5037 0.666626C13.2006 0.666626 13.8103 0.733293 14.333 0.866626V3.33329H12.5037C10.7383 3.33329 10.201 3.43729 9.65168 3.73063C9.25737 3.93663 8.93578 4.25869 8.73034 4.65329C8.43701 5.20129 8.33301 5.73863 8.33301 7.50396V9.99996Z" fill="#363232"/>
</svg>
