<svg width="32" height="32" viewBox="0 0 32 32" fill="none" xmlns="http://www.w3.org/2000/svg">
<path d="M16 14.6667H27.3773C27.436 15.1804 27.4658 15.7067 27.4667 16.2453C27.4667 19.8907 26.16 22.96 23.896 25.0453C21.916 26.8733 19.2053 27.9453 15.9733 27.9453C14.4009 27.946 12.8437 27.6369 11.3908 27.0355C9.93792 26.4341 8.61777 25.5523 7.50582 24.4405C6.39387 23.3286 5.51192 22.0086 4.91037 20.5558C4.30883 19.1029 3.99948 17.5458 4 15.9733C3.9993 14.4008 4.30852 12.8435 4.90999 11.3905C5.51146 9.93752 6.39338 8.61731 7.50535 7.50535C8.61731 6.39338 9.93752 5.51146 11.3905 4.90999C12.8435 4.30852 14.4008 3.9993 15.9733 4C19.2 4 21.9107 5.18667 23.984 7.11867L22.0347 9.06667C20.4907 7.57467 18.404 6.66667 16 6.66667C13.5246 6.66667 11.1507 7.65 9.40034 9.40034C7.65 11.1507 6.66667 13.5246 6.66667 16C6.66667 18.4754 7.65 20.8493 9.40034 22.5997C11.1507 24.35 13.5246 25.3333 16 25.3333C20.7027 25.3333 24.192 21.856 24.7693 17.3333H16V14.6667Z" fill="#363232"/>
</svg>
