<svg width="24" height="24" viewBox="0 0 24 24" fill="none" xmlns="http://www.w3.org/2000/svg">
<path d="M12 10.6667H23.3773C23.436 11.1804 23.4658 11.7067 23.4667 12.2453C23.4667 15.8907 22.16 18.96 19.896 21.0453C17.916 22.8733 15.2053 23.9453 11.9733 23.9453C10.4009 23.946 8.84372 23.6369 7.39082 23.0355C5.93792 22.4341 4.61777 21.5523 3.50582 20.4405C2.39387 19.3286 1.51192 18.0086 0.910372 16.5558C0.308826 15.1029 -0.000524517 13.5458 1.18899e-06 11.9733C-0.000699751 10.4008 0.308521 8.8435 0.909989 7.39051C1.51146 5.93752 2.39338 4.61731 3.50535 3.50535C4.61731 2.39338 5.93752 1.51146 7.39051 0.909989C8.8435 0.308521 10.4008 -0.000699751 11.9733 1.18899e-06C15.2 1.18899e-06 17.9107 1.18667 19.984 3.11867L18.0347 5.06667C16.4907 3.57467 14.404 2.66667 12 2.66667C9.52465 2.66667 7.15068 3.65 5.40034 5.40034C3.65 7.15068 2.66667 9.52465 2.66667 12C2.66667 14.4754 3.65 16.8493 5.40034 18.5997C7.15068 20.35 9.52465 21.3333 12 21.3333C16.7027 21.3333 20.192 17.856 20.7693 13.3333H12V10.6667Z" fill="#363232"/>
</svg>
