<svg width="75" height="44" viewBox="0 0 75 44" fill="none" xmlns="http://www.w3.org/2000/svg">
<path d="M15.7187 25.528C15.7187 26.936 15.5587 28.1627 15.2387 29.208C14.9401 30.2533 14.4281 31.1387 13.7027 31.864C13.0627 32.504 12.2521 33.0053 11.2707 33.368C10.2894 33.7307 9.1374 33.8907 7.81474 33.848C5.31874 33.8267 3.38807 33.144 2.02274 31.8C1.3614 31.1173 0.849404 30.296 0.486737 29.336C0.12407 28.376 -0.0359298 27.2773 0.00673684 26.04H4.67874C4.67874 27.1067 4.90274 27.992 5.35074 28.696C5.82007 29.3787 6.66274 29.7307 7.87874 29.752C9.0734 29.7733 9.9054 29.432 10.3747 28.728C10.8441 28.024 11.0787 27.1387 11.0787 26.072V11H15.7187V25.528Z" fill="#FE6E06"/>
<rect x="23.5" y="9.5" width="25" height="25" stroke="#FE6E06" stroke-width="3"/>
<rect x="36" y="10.5095" width="16.25" height="16.25" transform="rotate(45 36 10.5095)" stroke="#FE6E06" stroke-width="3"/>
<path d="M56.2812 33.656V11H66.3293C67.3746 11 68.3346 11.1067 69.2093 11.32C70.1053 11.5333 70.8839 11.9173 71.5452 12.472C72.0786 12.8987 72.5266 13.464 72.8893 14.168C73.2733 14.8507 73.4653 15.6827 73.4653 16.664C73.4866 17.7093 73.2946 18.6373 72.8893 19.448C72.5053 20.2587 71.8439 20.9413 70.9053 21.496C71.5666 21.688 72.1319 21.976 72.6013 22.36C73.0706 22.744 73.4439 23.192 73.7213 23.704C74.0199 24.216 74.2333 24.7707 74.3613 25.368C74.4893 25.9653 74.5426 26.584 74.5213 27.224C74.4786 28.248 74.2013 29.1973 73.6893 30.072C73.1986 30.9253 72.5479 31.6187 71.7373 32.152C70.7773 32.8133 69.7213 33.2293 68.5693 33.4C67.4173 33.5707 66.2759 33.656 65.1453 33.656H56.2812ZM65.0173 20.184C65.4866 20.184 65.9559 20.1627 66.4253 20.12C66.8946 20.056 67.3319 19.9067 67.7373 19.672C68.0786 19.4587 68.3666 19.1707 68.6013 18.808C68.8359 18.4453 68.9639 18.0187 68.9853 17.528C69.0066 17.016 68.9213 16.6 68.7293 16.28C68.5373 15.96 68.3026 15.7147 68.0253 15.544C67.6839 15.3307 67.2893 15.2133 66.8413 15.192C66.3933 15.1493 65.9346 15.128 65.4653 15.128H60.9213V20.184H65.0173ZM60.9213 29.56H65.1453C65.7639 29.56 66.4146 29.528 67.0973 29.464C67.8013 29.3787 68.3986 29.1547 68.8893 28.792C69.1879 28.5573 69.4333 28.2693 69.6253 27.928C69.8173 27.5653 69.9132 27.1173 69.9132 26.584C69.9132 26.0933 69.8066 25.6773 69.5933 25.336C69.3799 24.9947 69.1133 24.7387 68.7933 24.568C68.4306 24.3333 68.0146 24.1947 67.5453 24.152C67.0973 24.1093 66.6279 24.088 66.1373 24.088L60.9213 24.12V29.56Z" fill="#FE6E06"/>
</svg>
