<svg width="18" height="16" viewBox="0 0 18 16" fill="none" xmlns="http://www.w3.org/2000/svg">
<path d="M1.74864 3C1.74864 2.83424 1.81449 2.67527 1.9317 2.55806C2.04891 2.44085 2.20788 2.375 2.37364 2.375H3.62364V1.125C3.62364 0.95924 3.68949 0.800269 3.8067 0.683058C3.92391 0.565848 4.08288 0.5 4.24864 0.5C4.4144 0.5 4.57337 0.565848 4.69058 0.683058C4.80779 0.800269 4.87364 0.95924 4.87364 1.125V2.375H6.12364C6.2894 2.375 6.44837 2.44085 6.56558 2.55806C6.68279 2.67527 6.74864 2.83424 6.74864 3C6.74864 3.16576 6.68279 3.32473 6.56558 3.44194C6.44837 3.55915 6.2894 3.625 6.12364 3.625H4.87364V4.875C4.87364 5.04076 4.80779 5.19973 4.69058 5.31694C4.57337 5.43415 4.4144 5.5 4.24864 5.5C4.08288 5.5 3.92391 5.43415 3.8067 5.31694C3.68949 5.19973 3.62364 5.04076 3.62364 4.875V3.625H2.37364C2.20788 3.625 2.04891 3.55915 1.9317 3.44194C1.81449 3.32473 1.74864 3.16576 1.74864 3ZM12.3736 13H11.7486V12.375C11.7486 12.2092 11.6828 12.0503 11.5656 11.9331C11.4484 11.8158 11.2894 11.75 11.1236 11.75C10.9579 11.75 10.7989 11.8158 10.6817 11.9331C10.5645 12.0503 10.4986 12.2092 10.4986 12.375V13H9.87364C9.70788 13 9.54891 13.0658 9.4317 13.1831C9.31449 13.3003 9.24864 13.4592 9.24864 13.625C9.24864 13.7908 9.31449 13.9497 9.4317 14.0669C9.54891 14.1842 9.70788 14.25 9.87364 14.25H10.4986V14.875C10.4986 15.0408 10.5645 15.1997 10.6817 15.3169C10.7989 15.4342 10.9579 15.5 11.1236 15.5C11.2894 15.5 11.4484 15.4342 11.5656 15.3169C11.6828 15.1997 11.7486 15.0408 11.7486 14.875V14.25H12.3736C12.5394 14.25 12.6984 14.1842 12.8156 14.0669C12.9328 13.9497 12.9986 13.7908 12.9986 13.625C12.9986 13.4592 12.9328 13.3003 12.8156 13.1831C12.6984 13.0658 12.5394 13 12.3736 13ZM16.7486 9.25H15.4986V8C15.4986 7.83424 15.4328 7.67527 15.3156 7.55806C15.1984 7.44085 15.0394 7.375 14.8736 7.375C14.7079 7.375 14.5489 7.44085 14.4317 7.55806C14.3145 7.67527 14.2486 7.83424 14.2486 8V9.25H12.9986C12.8329 9.25 12.6739 9.31585 12.5567 9.43306C12.4395 9.55027 12.3736 9.70924 12.3736 9.875C12.3736 10.0408 12.4395 10.1997 12.5567 10.3169C12.6739 10.4342 12.8329 10.5 12.9986 10.5H14.2486V11.75C14.2486 11.9158 14.3145 12.0747 14.4317 12.1919C14.5489 12.3092 14.7079 12.375 14.8736 12.375C15.0394 12.375 15.1984 12.3092 15.3156 12.1919C15.4328 12.0747 15.4986 11.9158 15.4986 11.75V10.5H16.7486C16.9144 10.5 17.0734 10.4342 17.1906 10.3169C17.3078 10.1997 17.3736 10.0408 17.3736 9.875C17.3736 9.70924 17.3078 9.55027 17.1906 9.43306C17.0734 9.31585 16.9144 9.25 16.7486 9.25ZM15.1322 4.25L4.24864 15.1336C4.01424 15.3678 3.69642 15.4994 3.36505 15.4994C3.03367 15.4994 2.71585 15.3678 2.48145 15.1336L0.864264 13.518C0.748161 13.4019 0.656061 13.2641 0.593225 13.1124C0.530389 12.9607 0.498047 12.7982 0.498047 12.634C0.498047 12.4698 0.530389 12.3072 0.593225 12.1556C0.656061 12.0039 0.748161 11.8661 0.864264 11.75L11.7486 0.866406C11.8647 0.750303 12.0025 0.658203 12.1542 0.595367C12.3059 0.532531 12.4684 0.500189 12.6326 0.500189C12.7968 0.500189 12.9594 0.532531 13.111 0.595367C13.2627 0.658203 13.4005 0.750303 13.5166 0.866406L15.1322 2.48203C15.2483 2.59811 15.3404 2.73592 15.4033 2.8876C15.4661 3.03927 15.4985 3.20184 15.4985 3.36602C15.4985 3.53019 15.4661 3.69276 15.4033 3.84444C15.3404 3.99611 15.2483 4.13392 15.1322 4.25ZM10.8643 6.75L9.24864 5.13359L1.74864 12.6336L3.36426 14.25L10.8643 6.75ZM14.2486 3.36641L12.6322 1.75L10.1322 4.25L11.7486 5.86641L14.2486 3.36641Z" fill="#363232"/>
</svg>
