<svg width="21" height="20" viewBox="0 0 21 20" fill="none" xmlns="http://www.w3.org/2000/svg">
<path d="M4.18522 17.8333C3.72689 17.8333 3.33467 17.6703 3.00855 17.3442C2.68244 17.0181 2.51911 16.6256 2.51855 16.1667V7C2.51855 6.54167 2.68189 6.14944 3.00855 5.82333C3.33522 5.49722 3.72744 5.33389 4.18522 5.33333H7.51855V3.66667C7.51855 3.20833 7.68189 2.81611 8.00855 2.49C8.33522 2.16389 8.72744 2.00056 9.18522 2H12.5186C12.9769 2 13.3694 2.16333 13.6961 2.49C14.0227 2.81667 14.1858 3.20889 14.1852 3.66667V5.33333H17.5186C17.9769 5.33333 18.3694 5.49667 18.6961 5.82333C19.0227 6.15 19.1858 6.54222 19.1852 7V16.1667C19.1852 16.625 19.0222 17.0175 18.6961 17.3442C18.3699 17.6708 17.9774 17.8339 17.5186 17.8333H4.18522ZM4.18522 16.1667H17.5186V7H4.18522V16.1667ZM9.18522 5.33333H12.5186V3.66667H9.18522V5.33333Z" fill="#363232"/>
</svg>
