<svg width="18" height="18" viewBox="0 0 18 18" fill="none" xmlns="http://www.w3.org/2000/svg">
<path d="M15.6657 4.83333H13.8729C13.4583 4.83333 13.1657 4.41459 13.1657 4C13.1657 2.61929 12.0464 1.5 10.6657 1.5C9.28498 1.5 8.16569 2.61929 8.16569 4C8.16569 4.41459 7.87306 4.83333 7.45847 4.83333H5.66569C5.20545 4.83333 4.83236 5.20643 4.83236 5.66667V7.45945C4.83236 7.87404 4.41361 8.16667 3.99902 8.16667C2.61831 8.16667 1.49902 9.28595 1.49902 10.6667C1.49902 12.0474 2.61831 13.1667 3.99902 13.1667C4.41361 13.1667 4.83236 13.4593 4.83236 13.8739V15.6667C4.83236 16.1269 5.20545 16.5 5.66569 16.5L15.6657 16.5C16.1259 16.5 16.499 16.1269 16.499 15.6666V13.8739C16.499 13.4593 16.0803 13.1667 15.6657 13.1667C14.285 13.1667 13.1657 12.0474 13.1657 10.6667C13.1657 9.28595 14.285 8.16667 15.6657 8.16667C16.0803 8.16667 16.499 7.87404 16.499 7.45945L16.499 5.66667C16.499 5.20643 16.1259 4.83333 15.6657 4.83333Z" stroke="#363232" stroke-width="1.66667" stroke-linecap="round" stroke-linejoin="round"/>
</svg>
