<svg width="18" height="18" viewBox="0 0 18 18" 
fill="none" xmlns="http://www.w3.org/2000/svg">

<path d="M1.08252 8.11534C1.08252 7.09519 1.54967 6.1312 2.35037 5.49906L6.9337 1.88064C8.14473 0.924567 9.85364 0.924566 11.0647 1.88064L15.648 5.49906C16.4487 6.1312 16.9159 7.09518 16.9159 8.11534V13.5833C16.9159 15.4243 15.4235 16.9167 13.5825 16.9167H12.3325C11.8723 16.9167 11.4992 16.5436 11.4992 16.0833V13.5833C11.4992 12.6629 10.753 11.9167 9.83252 11.9167H8.16585C7.24538 11.9167 6.49919 12.6629 6.49919 13.5833V16.0833C6.49919 16.5436 6.12609 16.9167 5.66585 16.9167H4.41585C2.5749 16.9167 1.08252 15.4243 1.08252 13.5833L1.08252 8.11534Z" stroke="#363232" stroke-width="1.66667"/>
</svg>
