<svg width="20" height="20" viewBox="0 0 20 20" fill="none" xmlns="http://www.w3.org/2000/svg">
<circle cx="2.5" cy="2.5" r="2.5" transform="matrix(-1 0 0 1 12.499 7.5)" stroke="#363232" stroke-width="1.66667"/>
<path d="M13.7499 4.11393L13.3332 4.83562L13.7499 4.11393ZM13.7499 15.8841L13.3332 15.1624H13.3332L13.7499 15.8841ZM6.24986 15.8841L5.83319 16.6058L5.83319 16.6058L6.24986 15.8841ZM6.24986 4.11393L6.66653 4.83562L6.24986 4.11393ZM7.43566 2.51184L8.24755 2.69967L7.43566 2.51184ZM7.94921 1.92009L7.74484 1.11221L7.94921 1.92009ZM3.66833 15.4183L4.30118 14.8761L3.66833 15.4183ZM7.94938 18.0786L7.74502 18.8865L7.94938 18.0786ZM7.43578 17.4867L8.24772 17.2991L7.43578 17.4867ZM12.564 17.4865L11.7521 17.2988L12.564 17.4865ZM12.0505 18.0784L12.2549 18.8862L12.0505 18.0784ZM17.5774 8.06896L17.0475 7.42581L17.5774 8.06896ZM2.12964 12.7469L1.34287 13.0216L2.12964 12.7469ZM2.42141 11.9297L1.8915 11.2866L2.42141 11.9297ZM15.5729 4.38232L15.764 5.19344L15.5729 4.38232ZM16.3301 4.58003L16.9629 4.03781L16.3301 4.58003ZM4.42627 4.38219L4.23492 5.19325L4.42627 4.38219ZM17.5774 11.9297L18.1073 11.2866L17.5774 11.9297ZM17.8691 12.7469L18.6559 13.0216L17.8691 12.7469ZM11.7522 2.6999C11.9529 3.56698 12.5002 4.35466 13.3332 4.83562L14.1665 3.39224C13.75 3.15174 13.4769 2.76001 13.376 2.32412L11.7522 2.6999ZM13.3332 4.83562C14.0983 5.27735 14.9676 5.38112 15.764 5.19344L15.3817 3.57121C14.9821 3.6654 14.5496 3.61341 14.1665 3.39224L13.3332 4.83562ZM18.6559 6.9771C18.2759 5.8886 17.6968 4.89436 16.9629 4.03781L15.6973 5.12224C16.2986 5.82398 16.772 6.63739 17.0824 7.52642L18.6559 6.9771ZM17.4994 9.99935C17.4994 9.48141 17.7347 9.01912 18.1073 8.7121L17.0475 7.42581C16.3071 8.03584 15.8327 8.96255 15.8327 9.99935H17.4994ZM18.1073 11.2866C17.7347 10.9796 17.4994 10.5173 17.4994 9.99935H15.8327C15.8327 11.0361 16.3071 11.9629 17.0475 12.5729L18.1073 11.2866ZM16.9635 15.9602C17.6972 15.1038 18.276 14.1098 18.6559 13.0216L17.0824 12.4723C16.7721 13.3611 16.2988 14.1743 15.6978 14.8759L16.9635 15.9602ZM14.1665 16.6058C14.5497 16.3845 14.9822 16.3326 15.3819 16.4268L15.7645 14.8047C14.968 14.6168 14.0984 14.7206 13.3332 15.1624L14.1665 16.6058ZM13.3759 17.6742C13.4767 17.2382 13.7498 16.8463 14.1665 16.6058L13.3332 15.1624C12.4999 15.6435 11.9526 16.4315 11.7521 17.2988L13.3759 17.6742ZM9.99939 19.166C10.7767 19.166 11.5325 19.0691 12.2549 18.8862L11.846 17.2705C11.2562 17.4198 10.6377 17.4993 9.99939 17.4993V19.166ZM7.74502 18.8865C8.46711 19.0692 9.22254 19.166 9.99939 19.166V17.4993C9.36148 17.4993 8.74331 17.4199 8.15374 17.2708L7.74502 18.8865ZM5.83319 16.6058C6.24991 16.8463 6.52307 17.2383 6.62385 17.6744L8.24772 17.2991C8.04723 16.4316 7.49987 15.6435 6.66652 15.1624L5.83319 16.6058ZM4.61738 16.4269C5.01721 16.3325 5.44993 16.3845 5.83319 16.6058L6.66653 15.1624C5.90102 14.7204 5.03118 14.6168 4.23444 14.8049L4.61738 16.4269ZM1.34287 13.0216C1.7228 14.1099 2.30174 15.104 3.03549 15.9604L4.30118 14.8761C3.70005 14.1744 3.22672 13.3612 2.91641 12.4723L1.34287 13.0216ZM2.49939 9.99935C2.49939 10.5173 2.26412 10.9796 1.8915 11.2866L2.95132 12.5729C3.69172 11.9629 4.16606 11.0361 4.16606 9.99935H2.49939ZM1.8915 8.7121C2.26412 9.01912 2.49939 9.48141 2.49939 9.99935H4.16606C4.16606 8.96255 3.69172 8.03584 2.95132 7.42581L1.8915 8.7121ZM3.03607 4.03757C2.30205 4.89418 1.7229 5.8885 1.34287 6.9771L2.91641 7.52642C3.2268 6.63731 3.7003 5.82383 4.30165 5.12205L3.03607 4.03757ZM5.83319 3.39224C5.45 3.61348 5.01738 3.66543 4.61762 3.57112L4.23492 5.19325C5.03153 5.38119 5.90118 5.27749 6.66653 4.83562L5.83319 3.39224ZM6.62377 2.32401C6.52291 2.75995 6.2498 3.15172 5.83319 3.39224L6.66653 4.83562C7.49964 4.35462 8.04693 3.56684 8.24755 2.69967L6.62377 2.32401ZM9.99939 0.832682C9.22247 0.832682 8.46698 0.929523 7.74484 1.11221L8.15359 2.72798C8.7432 2.57882 9.36142 2.49935 9.99939 2.49935V0.832682ZM12.2551 1.11251C11.5326 0.929629 10.7767 0.832682 9.99939 0.832682V2.49935C10.6377 2.49935 11.2563 2.5789 11.8462 2.72822L12.2551 1.11251ZM8.24755 2.69967C8.25051 2.68685 8.25429 2.67681 8.25739 2.67027C8.26051 2.66368 8.2615 2.66364 8.25765 2.66832C8.25364 2.67321 8.24342 2.68429 8.22498 2.69658C8.20584 2.70933 8.1814 2.72094 8.15359 2.72798L7.74484 1.11221C7.06763 1.28353 6.7302 1.86395 6.62377 2.32401L8.24755 2.69967ZM2.95132 7.42581C2.93976 7.41628 2.93084 7.40657 2.92496 7.39871C2.91901 7.39077 2.9188 7.3883 2.92081 7.39343C2.92294 7.39887 2.92818 7.41467 2.92931 7.43987C2.9305 7.46632 2.92678 7.49672 2.91641 7.52642L1.34287 6.9771C1.0821 7.72407 1.48946 8.38085 1.8915 8.7121L2.95132 7.42581ZM4.23444 14.8049C4.22169 14.8079 4.21107 14.8089 4.20388 14.809C4.19662 14.8092 4.19615 14.8083 4.20203 14.8097C4.20816 14.8111 4.22254 14.8153 4.24164 14.8263C4.26146 14.8378 4.2826 14.8544 4.30118 14.8761L3.03549 15.9604C3.48916 16.49 4.15781 16.5354 4.61738 16.4269L4.23444 14.8049ZM8.15374 17.2708C8.18156 17.2778 8.206 17.2894 8.22515 17.3022C8.24359 17.3145 8.25381 17.3255 8.25782 17.3304C8.26167 17.3351 8.26068 17.3351 8.25756 17.3285C8.25446 17.3219 8.25068 17.3119 8.24772 17.2991L6.62385 17.6744C6.73021 18.1345 7.06764 18.7152 7.74502 18.8865L8.15374 17.2708ZM11.7521 17.2988C11.7491 17.3117 11.7453 17.3217 11.7422 17.3282C11.7391 17.3348 11.7381 17.3349 11.742 17.3302C11.746 17.3253 11.7562 17.3142 11.7746 17.3019C11.7938 17.2892 11.8182 17.2776 11.846 17.2705L12.2549 18.8862C12.9322 18.7148 13.2695 18.1343 13.3759 17.6742L11.7521 17.2988ZM15.6978 14.8759C15.7164 14.8542 15.7375 14.8376 15.7573 14.8261C15.7764 14.8151 15.7908 14.8109 15.7969 14.8095C15.8028 14.8081 15.8023 14.809 15.7951 14.8089C15.7879 14.8087 15.7772 14.8077 15.7645 14.8047L15.3819 16.4268C15.8415 16.5352 16.5099 16.4896 16.9635 15.9602L15.6978 14.8759ZM17.0824 7.52642C17.072 7.49672 17.0683 7.46632 17.0695 7.43987C17.0706 7.41467 17.0759 7.39888 17.078 7.39344C17.08 7.3883 17.0798 7.39077 17.0738 7.39871C17.0679 7.40657 17.059 7.41628 17.0475 7.42581L18.1073 8.7121C18.5093 8.38085 18.9167 7.72407 18.6559 6.9771L17.0824 7.52642ZM2.91641 12.4723C2.92678 12.502 2.9305 12.5324 2.92931 12.5588C2.92818 12.584 2.92294 12.5998 2.92081 12.6053C2.9188 12.6104 2.91901 12.6079 2.92496 12.6C2.93085 12.5921 2.93976 12.5824 2.95132 12.5729L1.8915 11.2866C1.48946 11.6178 1.0821 12.2746 1.34287 13.0216L2.91641 12.4723ZM15.764 5.19344C15.7768 5.19043 15.7874 5.18938 15.7946 5.18926C15.8018 5.18914 15.8023 5.19001 15.7964 5.18864C15.7903 5.18721 15.7759 5.18299 15.7568 5.17198C15.737 5.16056 15.7159 5.14392 15.6973 5.12224L16.9629 4.03781C16.5094 3.50855 15.8411 3.46294 15.3817 3.57121L15.764 5.19344ZM4.30165 5.12205C4.28308 5.14373 4.26194 5.16037 4.24213 5.1718C4.22304 5.1828 4.20866 5.18702 4.20253 5.18845C4.19665 5.18982 4.19712 5.18895 4.20437 5.18907C4.21156 5.18919 4.22218 5.19025 4.23492 5.19325L4.61762 3.57112C4.15813 3.46272 3.48968 3.50821 3.03607 4.03757L4.30165 5.12205ZM17.0475 12.5729C17.059 12.5824 17.0679 12.5921 17.0738 12.6C17.0798 12.6079 17.08 12.6104 17.078 12.6053C17.0758 12.5998 17.0706 12.584 17.0695 12.5588C17.0683 12.5324 17.072 12.502 17.0824 12.4723L18.6559 13.0216C18.9167 12.2746 18.5093 11.6178 18.1073 11.2866L17.0475 12.5729ZM13.376 2.32412C13.2695 1.86415 12.9322 1.28388 12.2551 1.11251L11.8462 2.72822C11.8184 2.72118 11.7939 2.70958 11.7748 2.69682C11.7564 2.68453 11.7461 2.67345 11.7421 2.66857C11.7383 2.66388 11.7393 2.66392 11.7424 2.67051C11.7455 2.67705 11.7493 2.68708 11.7522 2.6999L13.376 2.32412Z" fill="#363232"/>
</svg>
