<svg width="58" height="46" viewBox="0 0 58 46" fill="none" xmlns="http://www.w3.org/2000/svg">
<path d="M5 5L23.3229 18.8368L23.329 18.8419C25.3635 20.3339 26.3814 21.0803 27.4963 21.3686C28.4817 21.6235 29.5175 21.6235 30.5029 21.3686C31.6188 21.08 32.6396 20.3314 34.6777 18.8368C34.6777 18.8368 46.4302 9.81782 53 5M2 34.4006V11.6006C2 8.24027 2 6.55886 2.65396 5.27539C3.2292 4.14642 4.14642 3.2292 5.27539 2.65396C6.55886 2 8.24027 2 11.6006 2H46.4006C49.7609 2 51.4387 2 52.7222 2.65396C53.8512 3.2292 54.7714 4.14642 55.3467 5.27539C56 6.55761 56 8.23698 56 11.5907V34.4107C56 37.7645 56 39.4414 55.3467 40.7236C54.7714 41.8526 53.8512 42.7714 52.7222 43.3467C51.44 44 49.763 44 46.4093 44H11.5907C8.23698 44 6.55761 44 5.27539 43.3467C4.14642 42.7714 3.2292 41.8526 2.65396 40.7236C2 39.4402 2 37.7609 2 34.4006Z" stroke="#FE6E06" stroke-width="3" stroke-linecap="round" stroke-linejoin="round"/>
</svg>
