<svg width="20" height="20" viewBox="0 0 20 20" fill="none" xmlns="http://www.w3.org/2000/svg">
<path d="M6.66732 3.33366H6.00081C5.06739 3.33366 4.60033 3.33366 4.24382 3.51531C3.93021 3.6751 3.67543 3.92989 3.51564 4.24349C3.33398 4.60001 3.33398 5.06707 3.33398 6.00049V6.66699M6.66732 3.33366H13.334M6.66732 3.33366V1.66699M13.334 3.33366H14.0008C14.9342 3.33366 15.4003 3.33366 15.7568 3.51531C16.0704 3.6751 16.3261 3.92989 16.4858 4.24349C16.6673 4.59966 16.6673 5.06615 16.6673 5.99775V6.66699M13.334 3.33366V1.66699M3.33398 6.66699V14.0005C3.33398 14.9339 3.33398 15.4004 3.51564 15.7569C3.67543 16.0705 3.93021 16.3257 4.24382 16.4855C4.59999 16.667 5.06648 16.667 5.99808 16.667H14.0032C14.9348 16.667 15.4006 16.667 15.7568 16.4855C16.0704 16.3257 16.3261 16.0705 16.4858 15.7569C16.6673 15.4007 16.6673 14.9349 16.6673 14.0033V6.66699M3.33398 6.66699H16.6673M13.334 13.3337H13.3357L13.3356 13.3353L13.334 13.3353V13.3337ZM10.0007 13.3337H10.0023L10.0023 13.3353L10.0007 13.3353V13.3337ZM6.66732 13.3337H6.66898L6.66895 13.3353L6.66732 13.3353V13.3337ZM13.3356 10.0003V10.002L13.334 10.002V10.0003H13.3356ZM10.0007 10.0003H10.0023L10.0023 10.002L10.0007 10.002V10.0003ZM6.66732 10.0003H6.66898L6.66895 10.002L6.66732 10.002V10.0003Z" stroke="#363232" stroke-width="1.66667" stroke-linecap="round" stroke-linejoin="round"/>
</svg>
