<svg width="20" height="20" viewBox="0 0 20 20" fill="none" xmlns="http://www.w3.org/2000/svg">
<path d="M16.8337 14C16.3734 14 16.0003 14.3731 16.0003 14.8333C16.0003 15.2936 16.3734 15.6667 16.8337 15.6667C17.2939 15.6667 17.667 15.2936 17.667 14.8333C17.667 14.3731 17.2939 14 16.8337 14Z" stroke="#363232" stroke-width="2" stroke-linecap="round" stroke-linejoin="round"/>
<path d="M16.8337 9C16.3734 9 16.0003 9.3731 16.0003 9.83333C16.0003 10.2936 16.3734 10.6667 16.8337 10.6667C17.2939 10.6667 17.667 10.2936 17.667 9.83333C17.667 9.3731 17.2939 9 16.8337 9Z" stroke="#363232" stroke-width="2" stroke-linecap="round" stroke-linejoin="round"/>
<path d="M16.8337 4C16.3734 4 16.0003 4.3731 16.0003 4.83333C16.0003 5.29357 16.3734 5.66667 16.8337 5.66667C17.2939 5.66667 17.667 5.29357 17.667 4.83333C17.667 4.3731 17.2939 4 16.8337 4Z" stroke="#363232" stroke-width="2" stroke-linecap="round" stroke-linejoin="round"/>
</svg>
