<svg width="20" height="20" viewBox="0 0 20 20" fill="none" xmlns="http://www.w3.org/2000/svg">
<path d="M9.99967 14.1667C9.53944 14.1667 9.16634 14.5398 9.16634 15C9.16634 15.4603 9.53944 15.8334 9.99967 15.8334C10.4599 15.8334 10.833 15.4603 10.833 15C10.833 14.5398 10.4599 14.1667 9.99967 14.1667Z" stroke="#363232" stroke-width="2" stroke-linecap="round" stroke-linejoin="round"/>
<path d="M9.99967 9.16669C9.53944 9.16669 9.16634 9.53978 9.16634 10C9.16634 10.4603 9.53944 10.8334 9.99967 10.8334C10.4599 10.8334 10.833 10.4603 10.833 10C10.833 9.53978 10.4599 9.16669 9.99967 9.16669Z" stroke="#363232" stroke-width="2" stroke-linecap="round" stroke-linejoin="round"/>
<path d="M9.99967 4.16669C9.53944 4.16669 9.16634 4.53978 9.16634 5.00002C9.16634 5.46026 9.53944 5.83335 9.99967 5.83335C10.4599 5.83335 10.833 5.46026 10.833 5.00002C10.833 4.53978 10.4599 4.16669 9.99967 4.16669Z" stroke="#363232" stroke-width="2" stroke-linecap="round" stroke-linejoin="round"/>
</svg>
