<svg width="20" height="20" viewBox="0 0 20 20" fill="none" xmlns="http://www.w3.org/2000/svg">
<path d="M11.6667 12.5H17.5M2.5 12.5H4.16667M4.16667 12.5C4.16667 13.6506 5.09941 14.5834 6.25 14.5834C7.40059 14.5834 8.33333 13.6506 8.33333 12.5C8.33333 11.3494 7.40059 10.4167 6.25 10.4167C5.09941 10.4167 4.16667 11.3494 4.16667 12.5ZM16.6667 7.50002H17.5M2.5 7.50002H8.33333M13.75 9.58335C12.5994 9.58335 11.6667 8.65061 11.6667 7.50002C11.6667 6.34943 12.5994 5.41669 13.75 5.41669C14.9006 5.41669 15.8333 6.34943 15.8333 7.50002C15.8333 8.65061 14.9006 9.58335 13.75 9.58335Z" stroke="#363232" stroke-width="1.66667" stroke-linecap="round" stroke-linejoin="round"/>
</svg>
