<svg width="12" height="12" viewBox="0 0 12 12" fill="none" xmlns="http://www.w3.org/2000/svg">
<path d="M9.5 10.5V2.5C9.5 2.23478 9.39464 1.98043 9.20711 1.79289C9.01957 1.60536 8.76522 1.5 8.5 1.5H3.5C3.23478 1.5 2.98043 1.60536 2.79289 1.79289C2.60536 1.98043 2.5 2.23478 2.5 2.5V10.5M9.5 10.5H10.5M9.5 10.5H7M2.5 10.5H1.5M2.5 10.5H5M7 10.5V8C7 7.86739 6.94732 7.74021 6.85355 7.64645C6.75979 7.55268 6.63261 7.5 6.5 7.5H5.5C5.36739 7.5 5.24021 7.55268 5.14645 7.64645C5.05268 7.74021 5 7.86739 5 8V10.5M7 10.5H5M4.5 3.5H5M4.5 5.5H5M7 3.5H7.5M7 5.5H7.5" stroke="#929292" stroke-linecap="round" stroke-linejoin="round"/>
</svg>
